<svg width="43" height="43" viewBox="0 0 43 43" fill="none" xmlns="http://www.w3.org/2000/svg">
<g clip-path="url(#clip0_2679_1094)">
<circle cx="21.5" cy="21.5" r="21.5" fill="#473BF0"/>
<path d="M21.9917 29.204C21.1644 29.204 20.3427 29.0963 19.5267 28.881C18.7107 28.6543 18.0194 28.337 17.4527 27.929L18.5237 25.821C18.9771 26.1497 19.5041 26.4103 20.1047 26.603C20.7054 26.7957 21.3117 26.892 21.9237 26.892C22.6151 26.892 23.1591 26.756 23.5557 26.484C23.9524 26.212 24.1507 25.838 24.1507 25.362C24.1507 24.9087 23.9751 24.5517 23.6237 24.291C23.2724 24.0303 22.7057 23.9 21.9237 23.9H20.6657V22.081L23.9807 18.324L24.2867 19.31H18.0477V17.1H26.3777V18.885L23.0797 22.642L21.6857 21.843H22.4847C23.9467 21.843 25.0517 22.1717 25.7997 22.829C26.5477 23.4863 26.9217 24.3307 26.9217 25.362C26.9217 26.0307 26.7461 26.6597 26.3947 27.249C26.0434 27.827 25.5051 28.2973 24.7797 28.66C24.0544 29.0227 23.1251 29.204 21.9917 29.204Z" fill="white"/>
</g>
<defs>
<clipPath id="clip0_2679_1094">
<rect width="43" height="43" fill="white"/>
</clipPath>
</defs>
</svg>
